<svg width="1076" height="1200" viewBox="0 0 1076 1200" fill="none" xmlns="http://www.w3.org/2000/svg">
<mask id="mask0_870_44838" style="mask-type:alpha" maskUnits="userSpaceOnUse" x="0" y="0" width="1076" height="1200">
<rect width="1076" height="1200" fill="#D9D9D9"/>
</mask>
<g mask="url(#mask0_870_44838)">
<path d="M-431.522 1652.94C-634.186 1714.9 -516.071 1891.2 -431.681 1971.6C-445.898 2120.64 -475.964 2422.59 -482.49 2438.09C-489.016 2453.59 909.057 1764.27 1608.91 1417.67L1146.98 351.067C1122.94 360.972 1228.6 251.716 1176.28 277.563C1110.89 309.872 895.763 416.806 847.501 451.225C799.239 485.643 739.07 555.922 687.462 715.412C635.855 874.902 680.567 902.3 606.831 989.545C514.355 1098.96 185.672 794.841 -41.9685 878.256C-269.609 961.672 -102.596 1166.2 -172.589 1272.91C-242.582 1379.62 42.7814 1387.34 -3.99638 1472.87C-50.7742 1558.39 -178.192 1575.48 -431.522 1652.94Z" fill="url(#paint0_linear_870_44838)"/>
<g filter="url(#filter0_d_870_44838)">
<path d="M83.3922 1130.93C-15.4055 1060.55 -89.6784 962.292 -58.0167 853.471C-57.2368 850.79 -57.5281 847.947 -58.9955 845.572C-137.064 719.228 -291.806 471.045 -303.924 460.492C-316.111 449.88 1137.63 406.742 1874.85 386.248C1879.99 386.106 1884.09 390.033 1884.46 395.154L1967.49 1535.52C1967.87 1540.7 1964.86 1547.47 1969.15 1550.41C1988.33 1563.51 2069.34 1594.85 2024.83 1596.13C1956.25 1598.11 1805.23 1637.58 1675.09 1596.13C1565.13 1561.12 1513.99 1511.85 1425.92 1437.28C1343.18 1367.23 1338.09 1275.26 1238.43 1232.55C1113.82 1179.15 1119.49 1247.44 895.545 1280.12C894.264 1280.3 892.947 1280.77 891.84 1281.44C651.204 1427.46 544.456 1437.07 465.698 1346.02C399.051 1268.97 558.051 1184.17 518.075 1090.47C451.179 933.679 222.244 1229.84 83.3922 1130.93Z" fill="url(#paint1_linear_870_44838)"/>
</g>
<g filter="url(#filter1_d_870_44838)">
<path d="M-159.608 701.926C-258.406 631.547 -332.678 533.292 -301.017 424.471C-300.237 421.79 -300.528 418.947 -301.996 416.572C-380.064 290.228 -534.806 42.0454 -546.924 31.4925C-559.111 20.8797 894.631 -22.2585 1631.85 -42.7517C1636.99 -42.8944 1641.09 -38.9669 1641.46 -33.8461L1724.49 1106.52C1724.87 1111.7 1721.86 1118.47 1726.15 1121.41C1745.33 1134.51 1826.34 1165.85 1781.83 1167.13C1713.25 1169.11 1562.23 1208.58 1432.09 1167.13C1322.13 1132.12 1270.99 1082.85 1182.92 1008.28C1100.18 938.229 1095.09 846.256 995.433 803.552C870.452 749.994 785.17 816.378 650.549 851.405C486.957 893.969 301.642 1008.28 222.698 917.017C156.051 839.966 315.051 755.174 275.075 661.473C208.179 504.679 -20.756 800.838 -159.608 701.926Z" fill="url(#paint2_linear_870_44838)"/>
</g>
<g filter="url(#filter2_d_870_44838)">
<path d="M192.227 364.926C93.4708 294.547 19.2293 196.291 50.8788 87.4691C51.6581 84.7895 51.367 81.9475 49.9005 79.5732C-28.1348 -46.7701 -182.811 -294.955 -194.924 -305.508C-207.105 -316.12 1246.01 -359.258 1982.92 -379.752C1988.05 -379.894 1992.16 -375.967 1992.53 -370.846L2075.52 769.522C2075.9 774.704 2072.89 781.475 2077.18 784.407C2096.35 797.512 2177.32 828.854 2132.84 830.135C2064.28 832.108 1913.33 871.577 1783.24 830.135C1673.33 795.119 1622.22 745.848 1534.19 671.283C1451.48 601.229 1446.39 509.256 1346.77 466.552C1222.1 413.104 1002.94 513.988 1002.04 514.403C1002.01 514.416 1002.06 514.393 1002.04 514.405C1001.13 514.814 653.176 671.164 574.37 580.017C507.75 502.966 666.683 418.174 626.724 324.473C559.857 167.679 331.019 463.838 192.227 364.926Z" fill="url(#paint3_linear_870_44838)"/>
</g>
<g filter="url(#filter3_d_870_44838)">
<path d="M1563.34 -37.314C1739.15 81.0332 1801.64 -121.762 1810.92 -237.953C1935.62 -320.808 2189.05 -487.693 2205.2 -492.389C2221.34 -497.086 805.223 -1148.53 95.1436 -1473.66L-442.14 -442.964C-419.306 -430.539 -570.716 -443.756 -517.685 -419.413C-451.395 -388.984 -232.82 -289.29 -175.685 -273.495C-118.551 -257.7 -26.0661 -255.249 130.305 -315.652C286.676 -376.054 279.783 -428.039 393.991 -425.741C537.224 -422.86 508.122 23.9907 716.317 148.22C924.512 272.45 978.122 13.8981 1105.09 1.02392C1232.06 -11.8502 1058.27 -238.327 1154.16 -255.88C1250.05 -273.433 1343.59 -185.248 1563.34 -37.314Z" fill="url(#paint4_linear_870_44838)"/>
</g>
</g>
<defs>
<filter id="filter0_d_870_44838" x="-304" y="339.845" width="2452.4" height="1329.56" filterUnits="userSpaceOnUse" color-interpolation-filters="sRGB">
<feFlood flood-opacity="0" result="BackgroundImageFix"/>
<feColorMatrix in="SourceAlpha" type="matrix" values="0 0 0 0 0 0 0 0 0 0 0 0 0 0 0 0 0 0 127 0" result="hardAlpha"/>
<feOffset dx="60" dy="4"/>
<feGaussianBlur stdDeviation="25.2"/>
<feComposite in2="hardAlpha" operator="out"/>
<feColorMatrix type="matrix" values="0 0 0 0 0 0 0 0 0 0 0 0 0 0 0 0 0 0 0.25 0"/>
<feBlend mode="normal" in2="BackgroundImageFix" result="effect1_dropShadow_870_44838"/>
<feBlend mode="normal" in="SourceGraphic" in2="effect1_dropShadow_870_44838" result="shape"/>
</filter>
<filter id="filter1_d_870_44838" x="-558.4" y="-59.1554" width="2400.8" height="1287.56" filterUnits="userSpaceOnUse" color-interpolation-filters="sRGB">
<feFlood flood-opacity="0" result="BackgroundImageFix"/>
<feColorMatrix in="SourceAlpha" type="matrix" values="0 0 0 0 0 0 0 0 0 0 0 0 0 0 0 0 0 0 127 0" result="hardAlpha"/>
<feOffset dx="18" dy="13"/>
<feGaussianBlur stdDeviation="14.7"/>
<feComposite in2="hardAlpha" operator="out"/>
<feColorMatrix type="matrix" values="0 0 0 0 0 0 0 0 0 0 0 0 0 0 0 0 0 0 0.25 0"/>
<feBlend mode="normal" in2="BackgroundImageFix" result="effect1_dropShadow_870_44838"/>
<feBlend mode="normal" in="SourceGraphic" in2="effect1_dropShadow_870_44838" result="shape"/>
</filter>
<filter id="filter2_d_870_44838" x="-235.7" y="-445.455" width="2504.4" height="1392.16" filterUnits="userSpaceOnUse" color-interpolation-filters="sRGB">
<feFlood flood-opacity="0" result="BackgroundImageFix"/>
<feColorMatrix in="SourceAlpha" type="matrix" values="0 0 0 0 0 0 0 0 0 0 0 0 0 0 0 0 0 0 127 0" result="hardAlpha"/>
<feOffset dx="41" dy="16"/>
<feGaussianBlur stdDeviation="40.85"/>
<feComposite in2="hardAlpha" operator="out"/>
<feColorMatrix type="matrix" values="0 0 0 0 0 0 0 0 0 0 0 0 0 0 0 0 0 0 0.25 0"/>
<feBlend mode="normal" in2="BackgroundImageFix" result="effect1_dropShadow_870_44838"/>
<feBlend mode="normal" in="SourceGraphic" in2="effect1_dropShadow_870_44838" result="shape"/>
</filter>
<filter id="filter3_d_870_44838" x="-569.727" y="-1516.36" width="2847.76" height="1768.96" filterUnits="userSpaceOnUse" color-interpolation-filters="sRGB">
<feFlood flood-opacity="0" result="BackgroundImageFix"/>
<feColorMatrix in="SourceAlpha" type="matrix" values="0 0 0 0 0 0 0 0 0 0 0 0 0 0 0 0 0 0 127 0" result="hardAlpha"/>
<feOffset dx="16" dy="14"/>
<feGaussianBlur stdDeviation="28.35"/>
<feComposite in2="hardAlpha" operator="out"/>
<feColorMatrix type="matrix" values="0 0 0 0 0 0 0 0 0 0 0 0 0 0 0 0 0 0 0.25 0"/>
<feBlend mode="normal" in2="BackgroundImageFix" result="effect1_dropShadow_870_44838"/>
<feBlend mode="normal" in="SourceGraphic" in2="effect1_dropShadow_870_44838" result="shape"/>
</filter>
<linearGradient id="paint0_linear_870_44838" x1="425.121" y1="713.273" x2="1470.34" y2="804.297" gradientUnits="userSpaceOnUse">
<stop stop-color="#00DBDE"/>
<stop offset="1" stop-color="#FC00FF"/>
</linearGradient>
<linearGradient id="paint1_linear_870_44838" x1="-304" y1="1000.5" x2="731.264" y2="1163.64" gradientUnits="userSpaceOnUse">
<stop stop-color="#858AEE"/>
<stop offset="1" stop-color="#05227C"/>
</linearGradient>
<linearGradient id="paint2_linear_870_44838" x1="-547" y1="571.5" x2="2820.86" y2="655.907" gradientUnits="userSpaceOnUse">
<stop stop-color="#858AEE"/>
<stop offset="1" stop-color="#05227C"/>
</linearGradient>
<linearGradient id="paint3_linear_870_44838" x1="-195" y1="234.5" x2="839.843" y2="397.5" gradientUnits="userSpaceOnUse">
<stop stop-color="#858AEE"/>
<stop offset="1" stop-color="#05227C"/>
</linearGradient>
<linearGradient id="paint4_linear_870_44838" x1="293.922" y1="-110.574" x2="-293.887" y2="-979.619" gradientUnits="userSpaceOnUse">
<stop stop-color="#00DBDE"/>
<stop offset="1" stop-color="#FC00FF"/>
</linearGradient>
</defs>
</svg>
