<svg width="256" height="256" viewBox="0 0 256 256" fill="none" xmlns="http://www.w3.org/2000/svg">
<circle cx="127.88" cy="127.88" r="119.88" fill="#05227C" stroke="white" stroke-width="16"/>
<path fill-rule="evenodd" clip-rule="evenodd" d="M51.5147 119.397C46.8284 124.083 46.8284 131.681 51.5147 136.368L119.397 204.25C124.083 208.936 131.681 208.936 136.368 204.25L204.25 136.368C208.936 131.681 208.936 124.083 204.25 119.397L136.368 51.5147C131.681 46.8284 124.083 46.8284 119.397 51.5147L51.5147 119.397ZM127.882 158.382C144.727 158.382 158.382 144.727 158.382 127.882C158.382 111.038 144.727 97.3822 127.882 97.3822C111.037 97.3822 97.382 111.038 97.382 127.882C97.382 144.727 111.037 158.382 127.882 158.382Z" fill="white"/>
</svg>
